<svg width="1920" height="1465" viewBox="0 0 1920 1465" fill="none" xmlns="http://www.w3.org/2000/svg">
<mask id="path-1-inside-1_83_877" fill="white">
<path d="M0 1040L-6.29444e-05 0L39.9999 -1.26277e-06L40 1040L0 1040Z"/>
</mask>
<path d="M38.9999 -1.2312e-06L39 1040L41 1040L40.9999 -1.29434e-06L38.9999 -1.2312e-06Z" fill="#101019" mask="url(#path-1-inside-1_83_877)"/>
<mask id="path-3-inside-2_83_877" fill="white">
<path d="M40 1040L39.9999 0L79.9999 -1.26277e-06L80 1040L40 1040Z"/>
</mask>
<path d="M78.9999 -1.2312e-06L79 1040L81 1040L80.9999 -1.29434e-06L78.9999 -1.2312e-06Z" fill="#101019" mask="url(#path-3-inside-2_83_877)"/>
<mask id="path-5-inside-3_83_877" fill="white">
<path d="M80 1040L79.9999 0L120 -1.26277e-06L120 1040L80 1040Z"/>
</mask>
<path d="M119 -1.2312e-06L119 1040L121 1040L121 -1.29434e-06L119 -1.2312e-06Z" fill="#101019" mask="url(#path-5-inside-3_83_877)"/>
<mask id="path-7-inside-4_83_877" fill="white">
<path d="M120 1040L120 0L160 -1.26277e-06L160 1040L120 1040Z"/>
</mask>
<path d="M159 -1.2312e-06L159 1040L161 1040L161 -1.29434e-06L159 -1.2312e-06Z" fill="#101019" mask="url(#path-7-inside-4_83_877)"/>
<mask id="path-9-inside-5_83_877" fill="white">
<path d="M160 1040L160 0L200 -1.26277e-06L200 1040L160 1040Z"/>
</mask>
<path d="M199 -1.2312e-06L199 1040L201 1040L201 -1.29434e-06L199 -1.2312e-06Z" fill="#101019" mask="url(#path-9-inside-5_83_877)"/>
<mask id="path-11-inside-6_83_877" fill="white">
<path d="M200 1040L200 0L240 -1.26277e-06L240 1040L200 1040Z"/>
</mask>
<path d="M239 -1.2312e-06L239 1040L241 1040L241 -1.29434e-06L239 -1.2312e-06Z" fill="#101019" mask="url(#path-11-inside-6_83_877)"/>
<mask id="path-13-inside-7_83_877" fill="white">
<path d="M240 1040L240 0L280 -1.26277e-06L280 1040L240 1040Z"/>
</mask>
<path d="M279 -1.2312e-06L279 1040L281 1040L281 -1.29434e-06L279 -1.2312e-06Z" fill="#101019" mask="url(#path-13-inside-7_83_877)"/>
<mask id="path-15-inside-8_83_877" fill="white">
<path d="M280 1040L280 0L320 -1.26277e-06L320 1040L280 1040Z"/>
</mask>
<path d="M319 -1.2312e-06L319 1040L321 1040L321 -1.29434e-06L319 -1.2312e-06Z" fill="#101019" mask="url(#path-15-inside-8_83_877)"/>
<mask id="path-17-inside-9_83_877" fill="white">
<path d="M320 1040L320 0L360 -1.26277e-06L360 1040L320 1040Z"/>
</mask>
<path d="M359 -1.2312e-06L359 1040L361 1040L361 -1.29434e-06L359 -1.2312e-06Z" fill="#101019" mask="url(#path-17-inside-9_83_877)"/>
<mask id="path-19-inside-10_83_877" fill="white">
<path d="M360 1040L360 0L400 -1.26277e-06L400 1040L360 1040Z"/>
</mask>
<path d="M399 -1.2312e-06L399 1040L401 1040L401 -1.29434e-06L399 -1.2312e-06Z" fill="#101019" mask="url(#path-19-inside-10_83_877)"/>
<mask id="path-21-inside-11_83_877" fill="white">
<path d="M400 1040L400 0L440 -1.26277e-06L440 1040L400 1040Z"/>
</mask>
<path d="M439 -1.2312e-06L439 1040L441 1040L441 -1.29434e-06L439 -1.2312e-06Z" fill="#101019" mask="url(#path-21-inside-11_83_877)"/>
<mask id="path-23-inside-12_83_877" fill="white">
<path d="M440 1040L440 0L480 -1.26277e-06L480 1040L440 1040Z"/>
</mask>
<path d="M479 -1.2312e-06L479 1040L481 1040L481 -1.29434e-06L479 -1.2312e-06Z" fill="#101019" mask="url(#path-23-inside-12_83_877)"/>
<mask id="path-25-inside-13_83_877" fill="white">
<path d="M480 1040L480 0L520 -1.26277e-06L520 1040L480 1040Z"/>
</mask>
<path d="M519 -1.2312e-06L519 1040L521 1040L521 -1.29434e-06L519 -1.2312e-06Z" fill="#101019" mask="url(#path-25-inside-13_83_877)"/>
<mask id="path-27-inside-14_83_877" fill="white">
<path d="M520 1040L520 0L560 -1.26277e-06L560 1040L520 1040Z"/>
</mask>
<path d="M559 -1.2312e-06L559 1040L561 1040L561 -1.29434e-06L559 -1.2312e-06Z" fill="#101019" mask="url(#path-27-inside-14_83_877)"/>
<mask id="path-29-inside-15_83_877" fill="white">
<path d="M560 1040L560 0L600 -1.26277e-06L600 1040L560 1040Z"/>
</mask>
<path d="M599 -1.2312e-06L599 1040L601 1040L601 -1.29434e-06L599 -1.2312e-06Z" fill="#101019" mask="url(#path-29-inside-15_83_877)"/>
<mask id="path-31-inside-16_83_877" fill="white">
<path d="M600 1040L600 0L640 -1.26277e-06L640 1040L600 1040Z"/>
</mask>
<path d="M639 -1.2312e-06L639 1040L641 1040L641 -1.29434e-06L639 -1.2312e-06Z" fill="#101019" mask="url(#path-31-inside-16_83_877)"/>
<mask id="path-33-inside-17_83_877" fill="white">
<path d="M640 1040L640 0L680 -1.26277e-06L680 1040L640 1040Z"/>
</mask>
<path d="M679 -1.2312e-06L679 1040L681 1040L681 -1.29434e-06L679 -1.2312e-06Z" fill="#101019" mask="url(#path-33-inside-17_83_877)"/>
<mask id="path-35-inside-18_83_877" fill="white">
<path d="M680 1040L680 0L720 -1.26277e-06L720 1040L680 1040Z"/>
</mask>
<path d="M719 -1.2312e-06L719 1040L721 1040L721 -1.29434e-06L719 -1.2312e-06Z" fill="#101019" mask="url(#path-35-inside-18_83_877)"/>
<mask id="path-37-inside-19_83_877" fill="white">
<path d="M720 1040L720 0L760 -1.26277e-06L760 1040L720 1040Z"/>
</mask>
<path d="M759 -1.2312e-06L759 1040L761 1040L761 -1.29434e-06L759 -1.2312e-06Z" fill="#101019" mask="url(#path-37-inside-19_83_877)"/>
<mask id="path-39-inside-20_83_877" fill="white">
<path d="M760 1040L760 0L800 -1.26277e-06L800 1040L760 1040Z"/>
</mask>
<path d="M799 -1.2312e-06L799 1040L801 1040L801 -1.29434e-06L799 -1.2312e-06Z" fill="#101019" mask="url(#path-39-inside-20_83_877)"/>
<mask id="path-41-inside-21_83_877" fill="white">
<path d="M800 1040L800 0L840 -1.26277e-06L840 1040L800 1040Z"/>
</mask>
<path d="M839 -1.2312e-06L839 1040L841 1040L841 -1.29434e-06L839 -1.2312e-06Z" fill="#101019" mask="url(#path-41-inside-21_83_877)"/>
<mask id="path-43-inside-22_83_877" fill="white">
<path d="M840 1040L840 0L880 -1.26277e-06L880 1040L840 1040Z"/>
</mask>
<path d="M879 -1.2312e-06L879 1040L881 1040L881 -1.29434e-06L879 -1.2312e-06Z" fill="#101019" mask="url(#path-43-inside-22_83_877)"/>
<mask id="path-45-inside-23_83_877" fill="white">
<path d="M880 1040L880 0L920 -1.26277e-06L920 1040L880 1040Z"/>
</mask>
<path d="M919 -1.2312e-06L919 1040L921 1040L921 -1.29434e-06L919 -1.2312e-06Z" fill="#101019" mask="url(#path-45-inside-23_83_877)"/>
<mask id="path-47-inside-24_83_877" fill="white">
<path d="M920 1040L920 0L960 -1.26277e-06L960 1040L920 1040Z"/>
</mask>
<path d="M959 -1.2312e-06L959 1040L961 1040L961 -1.29434e-06L959 -1.2312e-06Z" fill="#101019" mask="url(#path-47-inside-24_83_877)"/>
<mask id="path-49-inside-25_83_877" fill="white">
<path d="M960 1040L960 0L1000 -1.26277e-06L1000 1040L960 1040Z"/>
</mask>
<path d="M999 -1.2312e-06L999 1040L1001 1040L1001 -1.29434e-06L999 -1.2312e-06Z" fill="#101019" mask="url(#path-49-inside-25_83_877)"/>
<mask id="path-51-inside-26_83_877" fill="white">
<path d="M1000 1040L1000 0L1040 -1.26277e-06L1040 1040L1000 1040Z"/>
</mask>
<path d="M1039 -1.2312e-06L1039 1040L1041 1040L1041 -1.29434e-06L1039 -1.2312e-06Z" fill="#101019" mask="url(#path-51-inside-26_83_877)"/>
<mask id="path-53-inside-27_83_877" fill="white">
<path d="M1040 1040L1040 0L1080 -1.26277e-06L1080 1040L1040 1040Z"/>
</mask>
<path d="M1079 -1.2312e-06L1079 1040L1081 1040L1081 -1.29434e-06L1079 -1.2312e-06Z" fill="#101019" mask="url(#path-53-inside-27_83_877)"/>
<mask id="path-55-inside-28_83_877" fill="white">
<path d="M1080 1040L1080 0L1120 -1.26277e-06L1120 1040L1080 1040Z"/>
</mask>
<path d="M1119 -1.2312e-06L1119 1040L1121 1040L1121 -1.29434e-06L1119 -1.2312e-06Z" fill="#101019" mask="url(#path-55-inside-28_83_877)"/>
<mask id="path-57-inside-29_83_877" fill="white">
<path d="M1120 1040L1120 0L1160 -1.26277e-06L1160 1040L1120 1040Z"/>
</mask>
<path d="M1159 -1.2312e-06L1159 1040L1161 1040L1161 -1.29434e-06L1159 -1.2312e-06Z" fill="#101019" mask="url(#path-57-inside-29_83_877)"/>
<mask id="path-59-inside-30_83_877" fill="white">
<path d="M1160 1040L1160 0L1200 -1.26277e-06L1200 1040L1160 1040Z"/>
</mask>
<path d="M1199 -1.2312e-06L1199 1040L1201 1040L1201 -1.29434e-06L1199 -1.2312e-06Z" fill="#101019" mask="url(#path-59-inside-30_83_877)"/>
<mask id="path-61-inside-31_83_877" fill="white">
<path d="M1200 1040L1200 0L1240 -1.26277e-06L1240 1040L1200 1040Z"/>
</mask>
<path d="M1239 -1.2312e-06L1239 1040L1241 1040L1241 -1.29434e-06L1239 -1.2312e-06Z" fill="#101019" mask="url(#path-61-inside-31_83_877)"/>
<mask id="path-63-inside-32_83_877" fill="white">
<path d="M1240 1040L1240 0L1280 -1.26277e-06L1280 1040L1240 1040Z"/>
</mask>
<path d="M1279 -1.2312e-06L1279 1040L1281 1040L1281 -1.29434e-06L1279 -1.2312e-06Z" fill="#101019" mask="url(#path-63-inside-32_83_877)"/>
<mask id="path-65-inside-33_83_877" fill="white">
<path d="M1280 1040L1280 0L1320 -1.26277e-06L1320 1040L1280 1040Z"/>
</mask>
<path d="M1319 -1.2312e-06L1319 1040L1321 1040L1321 -1.29434e-06L1319 -1.2312e-06Z" fill="#101019" mask="url(#path-65-inside-33_83_877)"/>
<mask id="path-67-inside-34_83_877" fill="white">
<path d="M1320 1040L1320 0L1360 -1.26277e-06L1360 1040L1320 1040Z"/>
</mask>
<path d="M1359 -1.2312e-06L1359 1040L1361 1040L1361 -1.29434e-06L1359 -1.2312e-06Z" fill="#101019" mask="url(#path-67-inside-34_83_877)"/>
<mask id="path-69-inside-35_83_877" fill="white">
<path d="M1360 1040L1360 0L1400 -1.26277e-06L1400 1040L1360 1040Z"/>
</mask>
<path d="M1399 -1.2312e-06L1399 1040L1401 1040L1401 -1.29434e-06L1399 -1.2312e-06Z" fill="#101019" mask="url(#path-69-inside-35_83_877)"/>
<mask id="path-71-inside-36_83_877" fill="white">
<path d="M1400 1040L1400 0L1440 -1.26277e-06L1440 1040L1400 1040Z"/>
</mask>
<path d="M1439 -1.2312e-06L1439 1040L1441 1040L1441 -1.29434e-06L1439 -1.2312e-06Z" fill="#101019" mask="url(#path-71-inside-36_83_877)"/>
<mask id="path-73-inside-37_83_877" fill="white">
<path d="M1440 1040L1440 0L1480 -1.26277e-06L1480 1040L1440 1040Z"/>
</mask>
<path d="M1479 -1.2312e-06L1479 1040L1481 1040L1481 -1.29434e-06L1479 -1.2312e-06Z" fill="#101019" mask="url(#path-73-inside-37_83_877)"/>
<mask id="path-75-inside-38_83_877" fill="white">
<path d="M1480 1040L1480 0L1520 -1.26277e-06L1520 1040L1480 1040Z"/>
</mask>
<path d="M1519 -1.2312e-06L1519 1040L1521 1040L1521 -1.29434e-06L1519 -1.2312e-06Z" fill="#101019" mask="url(#path-75-inside-38_83_877)"/>
<mask id="path-77-inside-39_83_877" fill="white">
<path d="M1520 1040L1520 0L1560 -1.26277e-06L1560 1040L1520 1040Z"/>
</mask>
<path d="M1559 -1.2312e-06L1559 1040L1561 1040L1561 -1.29434e-06L1559 -1.2312e-06Z" fill="#101019" mask="url(#path-77-inside-39_83_877)"/>
<mask id="path-79-inside-40_83_877" fill="white">
<path d="M1560 1040L1560 0L1600 -1.26277e-06L1600 1040L1560 1040Z"/>
</mask>
<path d="M1599 -1.2312e-06L1599 1040L1601 1040L1601 -1.29434e-06L1599 -1.2312e-06Z" fill="#101019" mask="url(#path-79-inside-40_83_877)"/>
<mask id="path-81-inside-41_83_877" fill="white">
<path d="M1600 1040L1600 0L1640 -1.26277e-06L1640 1040L1600 1040Z"/>
</mask>
<path d="M1639 -1.2312e-06L1639 1040L1641 1040L1641 -1.29434e-06L1639 -1.2312e-06Z" fill="#101019" mask="url(#path-81-inside-41_83_877)"/>
<mask id="path-83-inside-42_83_877" fill="white">
<path d="M1640 1040L1640 0L1680 -1.26277e-06L1680 1040L1640 1040Z"/>
</mask>
<path d="M1679 -1.2312e-06L1679 1040L1681 1040L1681 -1.29434e-06L1679 -1.2312e-06Z" fill="#101019" mask="url(#path-83-inside-42_83_877)"/>
<mask id="path-85-inside-43_83_877" fill="white">
<path d="M1680 1040L1680 0L1720 -1.26277e-06L1720 1040L1680 1040Z"/>
</mask>
<path d="M1719 -1.2312e-06L1719 1040L1721 1040L1721 -1.29434e-06L1719 -1.2312e-06Z" fill="#101019" mask="url(#path-85-inside-43_83_877)"/>
<mask id="path-87-inside-44_83_877" fill="white">
<path d="M1720 1040L1720 0L1760 -1.26277e-06L1760 1040L1720 1040Z"/>
</mask>
<path d="M1759 -1.2312e-06L1759 1040L1761 1040L1761 -1.29434e-06L1759 -1.2312e-06Z" fill="#101019" mask="url(#path-87-inside-44_83_877)"/>
<mask id="path-89-inside-45_83_877" fill="white">
<path d="M1760 1040L1760 0L1800 -1.26277e-06L1800 1040L1760 1040Z"/>
</mask>
<path d="M1799 -1.2312e-06L1799 1040L1801 1040L1801 -1.29434e-06L1799 -1.2312e-06Z" fill="#101019" mask="url(#path-89-inside-45_83_877)"/>
<mask id="path-91-inside-46_83_877" fill="white">
<path d="M1800 1040L1800 0L1840 -1.26277e-06L1840 1040L1800 1040Z"/>
</mask>
<path d="M1839 -1.2312e-06L1839 1040L1841 1040L1841 -1.29434e-06L1839 -1.2312e-06Z" fill="#101019" mask="url(#path-91-inside-46_83_877)"/>
<mask id="path-93-inside-47_83_877" fill="white">
<path d="M1840 1040L1840 0L1880 -1.26277e-06L1880 1040L1840 1040Z"/>
</mask>
<path d="M1879 -1.2312e-06L1879 1040L1881 1040L1881 -1.29434e-06L1879 -1.2312e-06Z" fill="#101019" mask="url(#path-93-inside-47_83_877)"/>
<mask id="path-95-inside-48_83_877" fill="white">
<path d="M1880 1040L1880 0L1920 -1.26277e-06L1920 1040L1880 1040Z"/>
</mask>
<path d="M1919 -1.2312e-06L1919 1040L1921 1040L1921 -1.29434e-06L1919 -1.2312e-06Z" fill="#101019" mask="url(#path-95-inside-48_83_877)"/>
<mask id="path-97-inside-49_83_877" fill="white">
<path d="M1920 1040L0.00012207 1040L0.000117408 1000L1920 1000L1920 1040Z"/>
</mask>
<path d="M0.000117524 1001L1920 1001L1920 999L0.000117291 999L0.000117524 1001Z" fill="#101019" mask="url(#path-97-inside-49_83_877)"/>
<mask id="path-99-inside-50_83_877" fill="white">
<path d="M1920 1000L0.00012207 1000L0.000117408 960L1920 960L1920 1000Z"/>
</mask>
<path d="M0.000117524 961L1920 961L1920 959L0.000117291 959L0.000117524 961Z" fill="#101019" mask="url(#path-99-inside-50_83_877)"/>
<mask id="path-101-inside-51_83_877" fill="white">
<path d="M1920 960L0.00012207 960L0.000117408 920L1920 920L1920 960Z"/>
</mask>
<path d="M0.000117524 921L1920 921L1920 919L0.000117291 919L0.000117524 921Z" fill="#101019" mask="url(#path-101-inside-51_83_877)"/>
<mask id="path-103-inside-52_83_877" fill="white">
<path d="M1920 920L0.00012207 920L0.000117408 880L1920 880L1920 920Z"/>
</mask>
<path d="M0.000117524 881L1920 881L1920 879L0.000117291 879L0.000117524 881Z" fill="#101019" mask="url(#path-103-inside-52_83_877)"/>
<mask id="path-105-inside-53_83_877" fill="white">
<path d="M1920 880L0.00012207 880L0.000117408 840L1920 840L1920 880Z"/>
</mask>
<path d="M0.000117524 841L1920 841L1920 839L0.000117291 839L0.000117524 841Z" fill="#101019" mask="url(#path-105-inside-53_83_877)"/>
<mask id="path-107-inside-54_83_877" fill="white">
<path d="M1920 840L0.00012207 840L0.000117408 800L1920 800L1920 840Z"/>
</mask>
<path d="M0.000117524 801L1920 801L1920 799L0.000117291 799L0.000117524 801Z" fill="#101019" mask="url(#path-107-inside-54_83_877)"/>
<mask id="path-109-inside-55_83_877" fill="white">
<path d="M1920 800L0.00012207 800L0.000117408 760L1920 760L1920 800Z"/>
</mask>
<path d="M0.000117524 761L1920 761L1920 759L0.000117291 759L0.000117524 761Z" fill="#101019" mask="url(#path-109-inside-55_83_877)"/>
<mask id="path-111-inside-56_83_877" fill="white">
<path d="M1920 760L0.00012207 760L0.000117408 720L1920 720L1920 760Z"/>
</mask>
<path d="M0.000117524 721L1920 721L1920 719L0.000117291 719L0.000117524 721Z" fill="#101019" mask="url(#path-111-inside-56_83_877)"/>
<mask id="path-113-inside-57_83_877" fill="white">
<path d="M1920 720L0.00012207 720L0.000117408 680L1920 680L1920 720Z"/>
</mask>
<path d="M0.000117524 681L1920 681L1920 679L0.000117291 679L0.000117524 681Z" fill="#101019" mask="url(#path-113-inside-57_83_877)"/>
<mask id="path-115-inside-58_83_877" fill="white">
<path d="M1920 680L0.00012207 680L0.000117408 640L1920 640L1920 680Z"/>
</mask>
<path d="M0.000117524 641L1920 641L1920 639L0.000117291 639L0.000117524 641Z" fill="#101019" mask="url(#path-115-inside-58_83_877)"/>
<mask id="path-117-inside-59_83_877" fill="white">
<path d="M1920 640L0.00012207 640L0.000117408 600L1920 600L1920 640Z"/>
</mask>
<path d="M0.000117524 601L1920 601L1920 599L0.000117291 599L0.000117524 601Z" fill="#101019" mask="url(#path-117-inside-59_83_877)"/>
<mask id="path-119-inside-60_83_877" fill="white">
<path d="M1920 600L0.00012207 600L0.000117408 560L1920 560L1920 600Z"/>
</mask>
<path d="M0.000117524 561L1920 561L1920 559L0.000117291 559L0.000117524 561Z" fill="#101019" mask="url(#path-119-inside-60_83_877)"/>
<mask id="path-121-inside-61_83_877" fill="white">
<path d="M1920 560L0.00012207 560L0.000117408 520L1920 520L1920 560Z"/>
</mask>
<path d="M0.000117524 521L1920 521L1920 519L0.000117291 519L0.000117524 521Z" fill="#101019" mask="url(#path-121-inside-61_83_877)"/>
<mask id="path-123-inside-62_83_877" fill="white">
<path d="M1920 520L0.00012207 520L0.000117408 480L1920 480L1920 520Z"/>
</mask>
<path d="M0.000117524 481L1920 481L1920 479L0.000117291 479L0.000117524 481Z" fill="#101019" mask="url(#path-123-inside-62_83_877)"/>
<mask id="path-125-inside-63_83_877" fill="white">
<path d="M1920 480L0.00012207 480L0.000117408 440L1920 440L1920 480Z"/>
</mask>
<path d="M0.000117524 441L1920 441L1920 439L0.000117291 439L0.000117524 441Z" fill="#101019" mask="url(#path-125-inside-63_83_877)"/>
<mask id="path-127-inside-64_83_877" fill="white">
<path d="M1920 440L0.00012207 440L0.000117408 400L1920 400L1920 440Z"/>
</mask>
<path d="M0.000117524 401L1920 401L1920 399L0.000117291 399L0.000117524 401Z" fill="#101019" mask="url(#path-127-inside-64_83_877)"/>
<mask id="path-129-inside-65_83_877" fill="white">
<path d="M1920 400L0.00012207 400L0.000117408 360L1920 360L1920 400Z"/>
</mask>
<path d="M0.000117524 361L1920 361L1920 359L0.000117291 359L0.000117524 361Z" fill="#101019" mask="url(#path-129-inside-65_83_877)"/>
<mask id="path-131-inside-66_83_877" fill="white">
<path d="M1920 360L0.00012207 360L0.000117408 320L1920 320L1920 360Z"/>
</mask>
<path d="M0.000117524 321L1920 321L1920 319L0.000117291 319L0.000117524 321Z" fill="#101019" mask="url(#path-131-inside-66_83_877)"/>
<mask id="path-133-inside-67_83_877" fill="white">
<path d="M1920 320L6.10352e-05 320L5.63726e-05 280L1920 280L1920 320Z"/>
</mask>
<path d="M5.64892e-05 281L1920 281L1920 279L5.6256e-05 279L5.64892e-05 281Z" fill="#101019" mask="url(#path-133-inside-67_83_877)"/>
<mask id="path-135-inside-68_83_877" fill="white">
<path d="M1920 280L6.10352e-05 280L5.63726e-05 240L1920 240L1920 280Z"/>
</mask>
<path d="M5.64892e-05 241L1920 241L1920 239L5.6256e-05 239L5.64892e-05 241Z" fill="#101019" mask="url(#path-135-inside-68_83_877)"/>
<mask id="path-137-inside-69_83_877" fill="white">
<path d="M1920 240L6.10352e-05 240L5.63726e-05 200L1920 200L1920 240Z"/>
</mask>
<path d="M5.64892e-05 201L1920 201L1920 199L5.6256e-05 199L5.64892e-05 201Z" fill="#101019" mask="url(#path-137-inside-69_83_877)"/>
<mask id="path-139-inside-70_83_877" fill="white">
<path d="M1920 200L6.10352e-05 200L5.63726e-05 160L1920 160L1920 200Z"/>
</mask>
<path d="M5.64892e-05 161L1920 161L1920 159L5.6256e-05 159L5.64892e-05 161Z" fill="#101019" mask="url(#path-139-inside-70_83_877)"/>
<mask id="path-141-inside-71_83_877" fill="white">
<path d="M1920 160L6.10352e-05 160L5.63726e-05 120L1920 120L1920 160Z"/>
</mask>
<path d="M5.64892e-05 121L1920 121L1920 119L5.6256e-05 119L5.64892e-05 121Z" fill="#101019" mask="url(#path-141-inside-71_83_877)"/>
<mask id="path-143-inside-72_83_877" fill="white">
<path d="M1920 120L6.10352e-05 120L5.63726e-05 80.0003L1920 80.0001L1920 120Z"/>
</mask>
<path d="M5.64892e-05 81.0003L1920 81.0001L1920 79.0001L5.6256e-05 79.0003L5.64892e-05 81.0003Z" fill="#101019" mask="url(#path-143-inside-72_83_877)"/>
<mask id="path-145-inside-73_83_877" fill="white">
<path d="M1920 80.0003L6.10352e-05 80.0004L5.63726e-05 40.0003L1920 40.0001L1920 80.0003Z"/>
</mask>
<path d="M5.64892e-05 41.0003L1920 41.0001L1920 39.0001L5.6256e-05 39.0003L5.64892e-05 41.0003Z" fill="#101019" mask="url(#path-145-inside-73_83_877)"/>
<mask id="path-147-inside-74_83_877" fill="white">
<path d="M1920 40.0003L6.10352e-05 40.0004L5.63726e-05 0.000274662L1920 0.000148773L1920 40.0003Z"/>
</mask>
<path d="M5.64892e-05 1.00027L1920 1.00015L1920 -0.999851L5.6256e-05 -0.999725L5.64892e-05 1.00027Z" fill="#101019" mask="url(#path-147-inside-74_83_877)"/>
<rect width="1920" height="1040" fill="url(#paint0_linear_83_877)"/>
<g opacity="0.4" filter="url(#filter0_f_83_877)">
<path fill-rule="evenodd" clip-rule="evenodd" d="M345.067 322.22C333.024 235.292 278.012 137.547 356.039 70.2609C436.346 1.00994 586.057 -11.1369 708.979 8.40465C814.138 25.1223 871.956 98.8433 933.357 162.04C980.437 210.497 994.662 264.866 1013.88 322.22C1043.74 411.345 1143.79 506 1074.44 583.116C1003.02 662.535 840.297 672.161 708.979 661.275C590.649 651.465 492.022 596.33 419.569 528.826C356.585 470.144 355.259 395.789 345.067 322.22Z" fill="#7D5CFF"/>
<g style="mix-blend-mode:multiply">
<path fill-rule="evenodd" clip-rule="evenodd" d="M1177.19 65.7092C1295.15 52.3484 1424.41 -6.69465 1520.52 43.0572C1618.61 93.8385 1609.69 198.53 1598.09 283.596C1587.71 359.725 1530.14 423.211 1460.62 482.168C1380.61 550.016 1302.06 630.933 1177.19 640.515C1044.16 650.723 915.954 599.161 824.042 531.015C734.622 464.718 673.304 373.44 695.792 283.596C716.175 202.161 830.298 154.869 929.42 110.005C1003.85 76.3177 1089.72 75.6165 1177.19 65.7092Z" fill="#E25AF6"/>
</g>
</g>
<defs>
<filter id="filter0_f_83_877" x="-485" y="-800" width="2890" height="2264.96" filterUnits="userSpaceOnUse" color-interpolation-filters="sRGB">
<feFlood flood-opacity="0" result="BackgroundImageFix"/>
<feBlend mode="normal" in="SourceGraphic" in2="BackgroundImageFix" result="shape"/>
<feGaussianBlur stdDeviation="400" result="effect1_foregroundBlur_83_877"/>
</filter>
<linearGradient id="paint0_linear_83_877" x1="960" y1="130" x2="960" y2="1040" gradientUnits="userSpaceOnUse">
<stop stop-color="#08080D"/>
<stop offset="0.499996" stop-color="#08080D" stop-opacity="0"/>
<stop offset="1" stop-color="#08080D"/>
</linearGradient>
</defs>
</svg>
